# xmcd
#
# Track frame offsets:
#	150
#	16997
#	32318
#	42112
#	56848
#	71767
#	86790
#	99633
#	115268
#	125594
#	138373
#	156887
#
# Disc length: 2274 seconds
#
# Revision: 0
# Processed by: cddbd v1.5.2PL0 Copyright (c) Steve Scherf et al.
# Submitted via: EasyCDDAExtractor 15.2.5.1
#
DISCID=a008e00c
DTITLE=Dave Lindholm - V
DYEAR=2016
DGENRE=Blues
TTITLE0=Pai pai kamaa
TTITLE1=Maailma on ihan mitä vaan
TTITLE2=Kasvojen takana
TTITLE3=Loistavaa (hovissa tanssitaan)
TTITLE4=Tavallinen T
TTITLE5=Esteuimarin matkat
TTITLE6=Kalifooorniaan (Joululaulu)
TTITLE7=Laiva and ankkuri
TTITLE8=Ajaja
TTITLE9=Ison ilon rannalla
TTITLE10=Viides enkeli
TTITLE11=Hän näki vuorelta
EXTD=
EXTT0=
EXTT1=
EXTT2=
EXTT3=
EXTT4=
EXTT5=
EXTT6=
EXTT7=
EXTT8=
EXTT9=
EXTT10=
EXTT11=
PLAYORDER=
